<svg width="45" height="46" viewBox="0 0 45 46" fill="none" xmlns="http://www.w3.org/2000/svg">
<g id="Frame 48095958">
<g id="Group 1390">
<path id="Vector" d="M16.0888 12.5077C9.7194 19.1122 10.0624 26.6869 16.0202 32.8014C15.687 32.8406 15.4322 32.8896 15.1873 32.8896C11.2285 32.8896 7.26964 32.8798 3.30104 32.9092C2.62491 32.9092 2.30154 32.7035 2.03697 32.0861C-0.677358 25.8245 -0.687153 19.5826 2.05657 13.3406C2.20356 12.9976 2.64451 12.5469 2.95808 12.5371C7.26965 12.4881 11.5812 12.4979 16.0986 12.4979L16.0888 12.5077Z" fill="black"/>
<path id="Vector_2" d="M12.9043 43.0503C20.5867 41.845 26.1134 37.9156 29.4157 30.9485C29.5626 30.6447 30.0036 30.3018 30.3172 30.3018C34.7757 30.2626 39.2441 30.2822 43.7026 30.292C43.7712 30.292 43.83 30.341 43.8986 30.3704C40.1162 42.6583 24.8101 49.1355 12.9141 43.0601L12.9043 43.0503Z" fill="black"/>
<path id="Vector_3" d="M44.104 15.1332C43.4867 15.1332 43.0653 15.1332 42.644 15.1332C38.646 15.1332 34.6382 15.1528 30.6402 15.1038C30.2384 15.1038 29.621 14.849 29.4741 14.5453C26.162 7.52916 20.6353 3.56056 12.7275 2.32588C18.7147 -0.427646 24.5941 -0.751014 30.5226 1.43417C37.0683 3.85453 41.5171 8.46007 44.104 15.1332Z" fill="black"/>
</g>
</g>
</svg>
