<svg width="68" height="58" viewBox="0 0 68 58" fill="none" xmlns="http://www.w3.org/2000/svg">
<g id="Layer_1" clip-path="url(#clip0_221_13671)">
<path id="Vector" d="M42.5603 0.0273438H24.7015C20.0854 0.0273438 16.3343 3.89041 16.3343 8.64432V10.6366H6.74831C3.09949 10.6366 0.126953 13.6898 0.126953 17.4476V51.1542C0.126953 54.912 3.09949 57.9733 6.74045 57.9733H19.0159H60.5056C64.1544 57.9733 67.1191 54.912 67.1191 51.1542V17.4476C67.1191 13.6898 64.1466 10.6366 60.5056 10.6366H50.9196V8.64432C50.9196 3.89041 47.1685 0.0273438 42.5524 0.0273438H42.5603ZM27.2572 54.993H25.362V12.7341H27.2572V54.993ZM38.6362 54.993H28.6177V12.7341H38.6362V54.993ZM41.884 54.993H39.9888V12.7341H41.884V54.993ZM42.9456 10.6366H24.3083V8.64432C24.3083 8.42566 24.4813 8.23939 24.6936 8.23939H42.5524C42.7647 8.23939 42.9378 8.41756 42.9378 8.64432V10.6366H42.9456ZM60.5056 13.4387C62.6524 13.4387 64.4061 15.2366 64.4061 17.4557V51.1623C64.4061 53.3732 62.6603 55.1792 60.5056 55.1792H43.2444V13.4387H44.3061C45.0531 13.4387 45.6665 12.8151 45.6665 12.0377V8.64432C45.6665 6.87881 44.2746 5.44535 42.5603 5.44535H24.7015C22.9872 5.44535 21.5953 6.87881 21.5953 8.64432V12.0377C21.5953 12.807 22.2008 13.4387 22.9557 13.4387H24.0173V55.1792H6.74045C4.59362 55.1792 2.83998 53.3732 2.83998 51.1623V17.4476C2.83998 15.2366 4.58576 13.4306 6.74045 13.4306H17.6869C18.434 13.4306 19.0474 12.807 19.0474 12.0296V8.63622C19.0474 5.42915 21.5795 2.81328 24.6936 2.81328H42.5524C45.6665 2.81328 48.1987 5.42105 48.1987 8.63622V12.0296C48.1987 12.7989 48.8042 13.4306 49.5591 13.4306H60.5056V13.4387Z" fill="#8828FF"/>
</g>
<defs>
<clipPath id="clip0_221_13671">
<rect width="67" height="57.9459" fill="white" transform="translate(0.126953 0.0273438)"/>
</clipPath>
</defs>
</svg>
