<svg width="73" height="71" viewBox="0 0 73 71" fill="none" xmlns="http://www.w3.org/2000/svg">
<g id="Layer_1" clip-path="url(#clip0_221_13707)">
<path id="Vector" d="M28.431 70.0573C44.0406 70.0573 56.735 57.357 56.735 41.7533C56.735 34.3789 53.8969 27.6517 49.2538 22.6049L54.5797 17.2789C54.7697 17.5461 55.0606 17.7361 55.4169 17.7717L66.5675 18.9949C66.6091 18.9949 66.6566 19.0008 66.6981 19.0008C67.2978 19.0008 67.8084 18.5496 67.8797 17.9439C67.9509 17.2908 67.4819 16.703 66.8287 16.6317L56.3728 15.4858L59.4366 12.4221C59.4841 12.4339 59.5375 12.4458 59.5909 12.4518L70.7415 13.6749C70.7831 13.6749 70.8306 13.6808 70.8722 13.6808C71.4719 13.6808 71.9825 13.2296 72.0537 12.6239C72.125 11.9708 71.6559 11.383 71.0028 11.3118L61.58 10.2786L67.3037 4.55489C67.7669 4.09176 67.7669 3.3377 67.3037 2.87458C66.8406 2.41145 66.0866 2.41145 65.6234 2.87458L59.7572 8.74676L56.6638 0.754891C56.4263 0.14333 55.7375 -0.159482 55.1259 0.0780173C54.5144 0.315517 54.2116 1.00427 54.4491 1.61583L57.8869 10.4864C57.8988 10.5221 57.9225 10.5458 57.9403 10.5755L55.4109 13.1049L52.3056 4.83989C52.0741 4.22832 51.3913 3.91364 50.7738 4.1452C50.1622 4.37676 49.8475 5.05957 50.0791 5.67707L53.5169 14.8208C53.5347 14.8624 53.5584 14.8921 53.5822 14.9336L47.5853 20.9305C42.5444 16.2874 35.8172 13.4493 28.4369 13.4493C12.8272 13.4433 0.126953 26.1436 0.126953 41.7533C0.126953 57.3629 12.8272 70.0573 28.431 70.0573ZM28.431 15.8183C35.1522 15.8183 41.2856 18.3892 45.8991 22.6049L40.2941 28.2099C37.1235 25.4311 32.9732 23.7389 28.431 23.7389C18.4976 23.7389 10.4107 31.8199 10.4107 41.7533C10.4107 51.6867 18.4976 59.7736 28.431 59.7736C38.3644 59.7736 46.4513 51.6926 46.4513 41.7533C46.4513 37.2111 44.7591 33.0608 41.9744 29.8902L47.5794 24.2852C51.7891 28.8986 54.3659 35.032 54.3659 41.7533C54.3659 56.0508 42.7344 67.6823 28.4369 67.6823C14.1394 67.6823 2.50195 56.0508 2.50195 41.7533C2.50195 27.4558 14.1335 15.8183 28.431 15.8183ZM27.5938 42.5905C27.8254 42.822 28.1282 42.9408 28.431 42.9408C28.7338 42.9408 29.0366 42.822 29.2682 42.5905L32.9257 38.933C33.4422 39.7523 33.745 40.7142 33.745 41.7533C33.745 44.6805 31.3641 47.0673 28.431 47.0673C25.4979 47.0673 23.1169 44.6864 23.1169 41.7533C23.1169 38.8202 25.5038 36.4392 28.431 36.4392C29.4641 36.4392 30.4319 36.742 31.2453 37.2527L27.5879 40.9102C27.1247 41.3733 27.1247 42.1273 27.5879 42.5905H27.5938ZM32.9553 35.5486C31.6847 34.6223 30.1232 34.0642 28.431 34.0642C24.1916 34.0642 20.7419 37.5139 20.7419 41.7533C20.7419 45.9926 24.1916 49.4423 28.431 49.4423C32.6703 49.4423 36.12 45.9926 36.12 41.7533C36.12 40.0611 35.5619 38.4995 34.6357 37.2289L40.2941 31.5705C42.6453 34.3077 44.0763 37.8642 44.0763 41.7533C44.0763 50.3805 37.0582 57.3986 28.431 57.3986C19.8038 57.3986 12.7857 50.3805 12.7857 41.7533C12.7857 33.1261 19.8038 26.1139 28.431 26.1139C32.3141 26.1139 35.8707 27.5389 38.6138 29.8961L32.9553 35.5545V35.5486Z" fill="#8828FF"/>
</g>
<defs>
<clipPath id="clip0_221_13707">
<rect width="71.9327" height="70.0565" fill="white" transform="translate(0.126953)"/>
</clipPath>
</defs>
</svg>
