<svg width="54" height="69" viewBox="0 0 54 69" fill="none" xmlns="http://www.w3.org/2000/svg">
<g id="Layer_1" clip-path="url(#clip0_221_13702)">
<path id="Vector" d="M1.4696 32.4723C0.805565 32.4217 0.235364 32.8843 0.141534 33.5349C0.0477032 34.1855 0.466332 34.8 1.10871 34.9373C5.73528 35.9421 9.91434 36.4048 13.7109 36.4048C31.6975 36.4048 41.0011 26.0965 47.6198 15.1521L51.6256 17.5593C52.0443 17.8123 52.5711 17.7978 52.9681 17.5231C53.3723 17.2484 53.5744 16.7641 53.495 16.287L50.9183 1.0487C50.8533 0.672803 50.6224 0.347507 50.2903 0.159558C49.9583 -0.0211623 49.5541 -0.0428487 49.2077 0.101727L35.5878 5.88477C35.1403 6.07272 34.8372 6.51367 34.83 6.998C34.8227 7.48233 35.0898 7.93775 35.5301 8.15461L39.637 10.1642C28.6805 34.3156 2.59556 32.559 1.4696 32.4723ZM42.4014 10.0486C42.6612 9.44134 42.4014 8.73292 41.8023 8.44376L39.0812 7.11367L48.7313 3.01493L50.5863 14.0172L47.8363 12.3618C47.5548 12.1883 47.2084 12.1377 46.8908 12.2244C46.566 12.3039 46.2917 12.5136 46.1257 12.8027C39.4493 24.1664 30.7086 34.265 12.8953 33.9108C22.5165 31.8579 35.66 26.0748 42.4086 10.0486H42.4014Z" fill="#8828FF"/>
<path id="Vector_2" d="M5.47521 48.4043C3.07171 48.4043 1.18066 50.7609 1.18066 53.7608V63.1511C1.18066 66.1582 3.06449 68.5076 5.47521 68.5076H11.3432C13.754 68.5076 15.6378 66.151 15.6378 63.1511V53.7608C15.6378 50.7537 13.754 48.4043 11.3432 48.4043H5.47521ZM13.1404 53.7608V63.1511C13.1404 64.6763 12.3032 66.0137 11.3432 66.0137H5.47521C4.51526 66.0137 3.678 64.6763 3.678 63.1511V53.7608C3.678 52.2356 4.51526 50.8982 5.47521 50.8982H11.3432C12.3032 50.8982 13.1404 52.2356 13.1404 53.7608Z" fill="#8828FF"/>
<path id="Vector_3" d="M23.2164 39.5996C20.8129 39.5996 18.9219 41.9562 18.9219 44.9562V63.151C18.9219 66.1582 20.8057 68.5076 23.2164 68.5076H29.0844C31.4879 68.5076 33.379 66.151 33.379 63.151V44.9562C33.379 41.949 31.4952 39.5996 29.0844 39.5996H23.2164ZM30.8817 44.9562V63.151C30.8817 64.6763 30.0444 66.0137 29.0844 66.0137H23.2164C22.2565 66.0137 21.4192 64.6763 21.4192 63.151V44.9562C21.4192 43.4309 22.2565 42.0935 23.2164 42.0935H29.0844C30.0444 42.0935 30.8817 43.4309 30.8817 44.9562Z" fill="#8828FF"/>
<path id="Vector_4" d="M48.5722 29.0312H42.7042C40.3007 29.0312 38.4097 31.3878 38.4097 34.3878V63.1512C38.4097 66.1584 40.2935 68.5077 42.7042 68.5077H48.5722C50.9757 68.5077 52.8668 66.1511 52.8668 63.1512V34.3878C52.8668 31.3806 50.983 29.0312 48.5722 29.0312ZM50.3695 63.1512C50.3695 64.6765 49.5322 66.0138 48.5722 66.0138H42.7042C41.7443 66.0138 40.907 64.6765 40.907 63.1512V34.3878C40.907 32.8625 41.7515 31.5252 42.7042 31.5252H48.5722C49.5322 31.5252 50.3695 32.8625 50.3695 34.3878V63.1512Z" fill="#8828FF"/>
</g>
<defs>
<clipPath id="clip0_221_13702">
<rect width="53.3824" height="68.5074" fill="white" transform="translate(0.126953)"/>
</clipPath>
</defs>
</svg>
