<svg width="22" height="22" viewBox="0 0 22 22" fill="none" xmlns="http://www.w3.org/2000/svg">
<path d="M7.97355 6.3649C4.94971 9.50038 5.11254 13.0964 7.94099 15.9993C7.78282 16.0179 7.66186 16.0412 7.54556 16.0412C5.66613 16.0412 3.78669 16.0365 1.90261 16.0505C1.58162 16.0505 1.4281 15.9528 1.3025 15.6597C0.0138752 12.687 0.00922516 9.72368 1.3118 6.76032C1.38158 6.5975 1.59093 6.3835 1.73979 6.37885C3.7867 6.35559 5.83361 6.36024 7.97821 6.36024L7.97355 6.3649Z" fill="#8828FF"/>
<path d="M6.46167 20.8652C10.1089 20.293 12.7327 18.4275 14.3004 15.1199C14.3702 14.9757 14.5795 14.8129 14.7284 14.8129C16.8451 14.7943 18.9664 14.8036 21.0831 14.8082C21.1157 14.8082 21.1436 14.8315 21.1761 14.8455C19.3804 20.6791 12.1139 23.7542 6.46633 20.8699L6.46167 20.8652Z" fill="#8828FF"/>
<path d="M21.2736 7.6117C20.9805 7.6117 20.7805 7.6117 20.5804 7.6117C18.6824 7.6117 16.7797 7.621 14.8817 7.59774C14.6909 7.59774 14.3978 7.47679 14.3281 7.33257C12.7557 4.0017 10.1319 2.11761 6.37769 1.53145C9.22009 0.224222 12.0113 0.070704 14.8258 1.10811C17.9334 2.25717 20.0454 4.44364 21.2736 7.6117Z" fill="#8828FF"/>
</svg>
