<svg width="7" height="7" viewBox="0 0 7 7" fill="none" xmlns="http://www.w3.org/2000/svg">
<path d="M3.5 0.63253C4.42771 0.63253 4.55422 0.63253 4.93374 0.63253C5.27108 0.63253 5.43976 0.716868 5.56627 0.759036C5.73494 0.843374 5.86145 0.885543 5.98795 1.01205C6.11446 1.13855 6.1988 1.26506 6.24096 1.43374C6.28313 1.56024 6.3253 1.72892 6.36747 2.06627C6.36747 2.44578 6.36747 2.53012 6.36747 3.5C6.36747 4.46988 6.36747 4.55422 6.36747 4.93374C6.36747 5.27108 6.28313 5.43976 6.24096 5.56627C6.15663 5.73494 6.11446 5.86145 5.98795 5.98795C5.86145 6.11446 5.73494 6.1988 5.56627 6.24096C5.43976 6.28313 5.27108 6.3253 4.93374 6.36747C4.55422 6.36747 4.46988 6.36747 3.5 6.36747C2.53012 6.36747 2.44578 6.36747 2.06627 6.36747C1.72892 6.36747 1.56024 6.28313 1.43374 6.24096C1.26506 6.15663 1.13855 6.11446 1.01205 5.98795C0.885543 5.86145 0.801205 5.73494 0.759036 5.56627C0.716868 5.43976 0.674699 5.27108 0.63253 4.93374C0.63253 4.55422 0.63253 4.46988 0.63253 3.5C0.63253 2.53012 0.63253 2.44578 0.63253 2.06627C0.63253 1.72892 0.716868 1.56024 0.759036 1.43374C0.843374 1.26506 0.885543 1.13855 1.01205 1.01205C1.13855 0.885543 1.26506 0.801205 1.43374 0.759036C1.56024 0.716868 1.72892 0.674699 2.06627 0.63253C2.44578 0.63253 2.57229 0.63253 3.5 0.63253ZM3.5 0C2.53012 0 2.44578 0 2.06627 0C1.68675 0 1.43374 0.0843376 1.22289 0.168675C1.01205 0.253012 0.801205 0.379518 0.590362 0.590362C0.379518 0.801205 0.295181 0.96988 0.168675 1.22289C0.0843376 1.43374 0.0421687 1.68675 0 2.06627C0 2.44578 0 2.57229 0 3.5C0 4.46988 0 4.55422 0 4.93374C0 5.31325 0.0843376 5.56627 0.168675 5.77711C0.253012 5.98795 0.379518 6.1988 0.590362 6.40964C0.801205 6.62048 0.96988 6.70482 1.22289 6.83133C1.43374 6.91566 1.68675 6.95783 2.06627 7C2.44578 7 2.57229 7 3.5 7C4.42771 7 4.55422 7 4.93374 7C5.31325 7 5.56627 6.91566 5.77711 6.83133C5.98795 6.74699 6.1988 6.62048 6.40964 6.40964C6.62048 6.1988 6.70482 6.03012 6.83133 5.77711C6.91566 5.56627 6.95783 5.31325 7 4.93374C7 4.55422 7 4.42771 7 3.5C7 2.57229 7 2.44578 7 2.06627C7 1.68675 6.91566 1.43374 6.83133 1.22289C6.74699 1.01205 6.62048 0.801205 6.40964 0.590362C6.1988 0.379518 6.03012 0.295181 5.77711 0.168675C5.56627 0.0843376 5.31325 0.0421687 4.93374 0C4.55422 0 4.46988 0 3.5 0Z" fill="white"/>
<path d="M3.5 1.68675C2.48795 1.68675 1.68675 2.48795 1.68675 3.5C1.68675 4.51205 2.48795 5.31325 3.5 5.31325C4.51205 5.31325 5.31325 4.51205 5.31325 3.5C5.31325 2.48795 4.51205 1.68675 3.5 1.68675ZM3.5 4.68072C2.86747 4.68072 2.31928 4.1747 2.31928 3.5C2.31928 2.86747 2.8253 2.31928 3.5 2.31928C4.13253 2.31928 4.68072 2.8253 4.68072 3.5C4.68072 4.13253 4.13253 4.68072 3.5 4.68072Z" fill="white"/>
<path d="M5.35542 2.06627C5.58831 2.06627 5.77711 1.87747 5.77711 1.64458C5.77711 1.41169 5.58831 1.22289 5.35542 1.22289C5.12253 1.22289 4.93374 1.41169 4.93374 1.64458C4.93374 1.87747 5.12253 2.06627 5.35542 2.06627Z" fill="white"/>
</svg>
