<svg width="50" height="50" viewBox="0 0 50 50" fill="none" xmlns="http://www.w3.org/2000/svg">
<g id="Icons/Phosphor/Brands/LinkedinLogo">
<path id="Vector (Stroke)" fill-rule="evenodd" clip-rule="evenodd" d="M5.46875 8.59375C5.46875 6.86786 6.86786 5.46875 8.59375 5.46875H41.4062C43.1321 5.46875 44.5312 6.86786 44.5312 8.59375V41.4062C44.5312 43.1321 43.1321 44.5312 41.4062 44.5312H8.59375C6.86786 44.5312 5.46875 43.1321 5.46875 41.4062V8.59375ZM41.4062 8.59375H8.59375V41.4062H41.4062V8.59375Z" fill="white"/>
<path id="Vector (Stroke)_2" fill-rule="evenodd" clip-rule="evenodd" d="M23.4375 20.3125C24.3004 20.3125 25 21.0121 25 21.875V34.375C25 35.2379 24.3004 35.9375 23.4375 35.9375C22.5746 35.9375 21.875 35.2379 21.875 34.375V21.875C21.875 21.0121 22.5746 20.3125 23.4375 20.3125Z" fill="white"/>
<path id="Vector (Stroke)_3" fill-rule="evenodd" clip-rule="evenodd" d="M17.1875 20.3125C18.0504 20.3125 18.75 21.0121 18.75 21.875V34.375C18.75 35.2379 18.0504 35.9375 17.1875 35.9375C16.3246 35.9375 15.625 35.2379 15.625 34.375V21.875C15.625 21.0121 16.3246 20.3125 17.1875 20.3125Z" fill="white"/>
<path id="Vector (Stroke)_4" fill-rule="evenodd" clip-rule="evenodd" d="M28.9062 23.4375C27.8702 23.4375 26.8767 23.8491 26.1441 24.5816C25.4115 25.3142 25 26.3077 25 27.3438C25 28.2067 24.3004 28.9062 23.4375 28.9062C22.5746 28.9062 21.875 28.2067 21.875 27.3438C21.875 25.4789 22.6158 23.6905 23.9344 22.3719C25.253 21.0533 27.0414 20.3125 28.9062 20.3125C30.7711 20.3125 32.5595 21.0533 33.8781 22.3719C35.1967 23.6905 35.9375 25.4789 35.9375 27.3438V34.375C35.9375 35.2379 35.2379 35.9375 34.375 35.9375C33.5121 35.9375 32.8125 35.2379 32.8125 34.375V27.3438C32.8125 26.3077 32.401 25.3142 31.6684 24.5816C30.9358 23.8491 29.9423 23.4375 28.9062 23.4375Z" fill="white"/>
<path id="Vector" d="M17.1875 17.9688C18.4819 17.9688 19.5312 16.9194 19.5312 15.625C19.5312 14.3306 18.4819 13.2812 17.1875 13.2812C15.8931 13.2812 14.8438 14.3306 14.8438 15.625C14.8438 16.9194 15.8931 17.9688 17.1875 17.9688Z" fill="white"/>
</g>
</svg>
