<svg width="114" height="46" viewBox="0 0 114 46" fill="none" xmlns="http://www.w3.org/2000/svg">
<path d="M16.0888 12.5077C9.7194 19.1122 10.0624 26.6869 16.0202 32.8014C15.687 32.8406 15.4322 32.8896 15.1873 32.8896C11.2285 32.8896 7.26964 32.8798 3.30104 32.9092C2.62491 32.9092 2.30154 32.7035 2.03697 32.0861C-0.677358 25.8245 -0.687153 19.5826 2.05657 13.3406C2.20356 12.9976 2.64451 12.5469 2.95808 12.5371C7.26965 12.4881 11.5812 12.4979 16.0986 12.4979L16.0888 12.5077Z" fill="white"/>
<path d="M12.9043 43.0503C20.5867 41.845 26.1134 37.9156 29.4157 30.9485C29.5626 30.6447 30.0036 30.3018 30.3172 30.3018C34.7757 30.2626 39.2441 30.2822 43.7026 30.292C43.7712 30.292 43.83 30.341 43.8986 30.3704C40.1162 42.6583 24.8101 49.1355 12.9141 43.0601L12.9043 43.0503Z" fill="white"/>
<path d="M44.104 15.1332C43.4867 15.1332 43.0653 15.1332 42.644 15.1332C38.646 15.1332 34.6382 15.1528 30.6402 15.1038C30.2384 15.1038 29.621 14.849 29.4741 14.5453C26.162 7.52916 20.6353 3.56056 12.7275 2.32588C18.7147 -0.427646 24.5941 -0.751014 30.5226 1.43417C37.0683 3.85453 41.5171 8.46007 44.104 15.1332Z" fill="white"/>
<path d="M50.322 23.518C50.322 24.682 50.58 25.552 51.096 26.128C51.624 26.692 52.332 26.974 53.22 26.974C54.096 26.974 54.78 26.692 55.272 26.128C55.764 25.564 56.01 24.718 56.01 23.59C56.01 22.39 55.746 21.496 55.218 20.908C54.702 20.32 53.994 20.026 53.094 20.026C52.194 20.026 51.504 20.32 51.024 20.908C50.556 21.484 50.322 22.354 50.322 23.518ZM48.792 23.5C48.792 22.588 48.936 21.832 49.224 21.232C49.512 20.62 49.878 20.134 50.322 19.774C50.766 19.402 51.24 19.144 51.744 19C52.26 18.844 52.746 18.766 53.202 18.766C53.634 18.766 54.102 18.838 54.606 18.982C55.122 19.114 55.596 19.36 56.028 19.72C56.46 20.068 56.82 20.542 57.108 21.142C57.396 21.73 57.54 22.48 57.54 23.392C57.54 24.34 57.39 25.126 57.09 25.75C56.802 26.374 56.436 26.872 55.992 27.244C55.548 27.604 55.068 27.856 54.552 28C54.036 28.156 53.556 28.234 53.112 28.234C52.656 28.234 52.176 28.162 51.672 28.018C51.168 27.874 50.7 27.628 50.268 27.28C49.848 26.92 49.494 26.434 49.206 25.822C48.93 25.21 48.792 24.436 48.792 23.5ZM65.0499 27.01H65.0139C64.9059 27.094 64.7499 27.208 64.5459 27.352C64.3419 27.484 64.1079 27.616 63.8439 27.748C63.5799 27.88 63.2859 27.994 62.9619 28.09C62.6499 28.186 62.3319 28.234 62.0079 28.234C61.5639 28.234 61.1859 28.174 60.8739 28.054C60.5619 27.946 60.3099 27.76 60.1179 27.496C59.9259 27.232 59.7879 26.884 59.7039 26.452C59.6199 26.02 59.5779 25.48 59.5779 24.832V18.946H61.0179V24.616C61.0179 24.976 61.0239 25.3 61.0359 25.588C61.0479 25.876 61.0899 26.122 61.1619 26.326C61.2339 26.53 61.3479 26.692 61.5039 26.812C61.6719 26.92 61.9059 26.974 62.2059 26.974C62.5179 26.974 62.8419 26.908 63.1779 26.776C63.5139 26.644 63.8199 26.494 64.0959 26.326C64.4199 26.134 64.7379 25.918 65.0499 25.678V18.946H66.4899V26.83C66.5019 27.262 66.5319 27.652 66.5799 28L65.1579 28.144L65.0499 27.01ZM69.1245 20.404C69.1245 20.128 69.0945 19.696 69.0345 19.108L70.3665 18.928L70.5105 20.242H70.5285C70.7445 19.966 70.9545 19.726 71.1585 19.522C71.3625 19.318 71.5725 19.144 71.7885 19C72.0165 18.844 72.2325 18.766 72.4365 18.766C72.7125 18.754 73.0965 18.784 73.5885 18.856L73.2645 20.242C72.8685 20.17 72.5925 20.14 72.4365 20.152C72.2325 20.152 72.0165 20.248 71.7885 20.44C71.5605 20.632 71.3625 20.836 71.1945 21.052C70.9785 21.316 70.7685 21.616 70.5645 21.952V28H69.1245V20.404ZM80.067 20.422C79.563 20.266 79.113 20.164 78.717 20.116C78.333 20.056 77.979 20.026 77.655 20.026C77.235 20.026 76.881 20.128 76.593 20.332C76.317 20.536 76.179 20.8 76.179 21.124C76.191 21.412 76.317 21.658 76.557 21.862C76.797 22.066 77.073 22.252 77.385 22.42C77.709 22.576 78.063 22.75 78.447 22.942C78.843 23.134 79.209 23.35 79.545 23.59C79.893 23.83 80.175 24.118 80.391 24.454C80.607 24.79 80.721 25.192 80.733 25.66C80.721 26.164 80.607 26.584 80.391 26.92C80.187 27.244 79.917 27.508 79.581 27.712C79.257 27.904 78.903 28.036 78.519 28.108C78.135 28.192 77.775 28.234 77.439 28.234C77.007 28.234 76.557 28.21 76.089 28.162C75.633 28.114 75.141 28.012 74.613 27.856L74.883 26.56C75.423 26.704 75.915 26.812 76.359 26.884C76.803 26.944 77.169 26.974 77.457 26.974C77.673 26.974 77.883 26.95 78.087 26.902C78.303 26.854 78.495 26.788 78.663 26.704C78.831 26.608 78.963 26.488 79.059 26.344C79.167 26.2 79.221 26.038 79.221 25.858C79.209 25.522 79.095 25.24 78.879 25.012C78.663 24.772 78.381 24.562 78.033 24.382C77.697 24.19 77.331 24.004 76.935 23.824C76.551 23.632 76.185 23.416 75.837 23.176C75.501 22.924 75.219 22.63 74.991 22.294C74.763 21.946 74.649 21.52 74.649 21.016C74.649 20.656 74.739 20.338 74.919 20.062C75.111 19.774 75.351 19.54 75.639 19.36C75.939 19.168 76.263 19.024 76.611 18.928C76.971 18.82 77.319 18.766 77.655 18.766C78.003 18.766 78.393 18.796 78.825 18.856C79.257 18.904 79.755 19 80.319 19.144L80.067 20.422ZM82.877 15.724H90.401V17.11H84.389V21.034H89.969V22.384H84.389V26.614H90.581V28H82.877V15.724ZM92.7671 21.034C92.7671 20.602 92.7371 19.96 92.6771 19.108L94.0091 18.928L94.1711 19.9C94.4111 19.696 94.6571 19.516 94.9091 19.36C95.1731 19.192 95.4551 19.054 95.7551 18.946C96.0671 18.826 96.3971 18.766 96.7451 18.766C97.2371 18.766 97.6991 18.85 98.1311 19.018C98.5751 19.186 98.9591 19.456 99.2831 19.828C99.6191 20.2 99.8831 20.686 100.075 21.286C100.267 21.874 100.363 22.6 100.363 23.464C100.363 24.34 100.231 25.084 99.9671 25.696C99.7151 26.296 99.3791 26.788 98.9591 27.172C98.5511 27.544 98.0831 27.814 97.5551 27.982C97.0391 28.15 96.5111 28.234 95.9711 28.234C95.3951 28.222 94.8071 28.15 94.2071 28.018V31.924L92.7671 32.104V21.034ZM95.9711 26.974C96.4751 26.974 96.9071 26.884 97.2671 26.704C97.6271 26.524 97.9211 26.278 98.1491 25.966C98.3891 25.642 98.5631 25.276 98.6711 24.868C98.7791 24.448 98.8331 24.004 98.8331 23.536C98.8331 23.116 98.7911 22.696 98.7071 22.276C98.6351 21.856 98.5091 21.484 98.3291 21.16C98.1611 20.824 97.9331 20.554 97.6451 20.35C97.3571 20.134 97.0031 20.026 96.5831 20.026C96.2711 20.026 95.9771 20.086 95.7011 20.206C95.4251 20.314 95.1611 20.452 94.9091 20.62C94.6691 20.776 94.4351 20.956 94.2071 21.16V26.686C94.3391 26.734 94.4831 26.782 94.6391 26.83C94.8071 26.866 94.9991 26.902 95.2151 26.938C95.4431 26.962 95.6951 26.974 95.9711 26.974ZM102.47 18.928L103.91 18.766V28H102.47V18.928ZM102.236 16.354C102.236 16.078 102.326 15.85 102.506 15.67C102.698 15.478 102.932 15.382 103.208 15.382C103.496 15.382 103.736 15.478 103.928 15.67C104.132 15.85 104.234 16.078 104.234 16.354C104.234 16.63 104.132 16.864 103.928 17.056C103.736 17.236 103.496 17.326 103.208 17.326C102.932 17.326 102.698 17.236 102.506 17.056C102.326 16.864 102.236 16.63 102.236 16.354ZM112.111 20.26C111.907 20.212 111.625 20.164 111.265 20.116C110.905 20.056 110.539 20.026 110.167 20.026C109.627 20.026 109.183 20.134 108.835 20.35C108.499 20.566 108.235 20.848 108.043 21.196C107.851 21.532 107.719 21.91 107.647 22.33C107.575 22.738 107.539 23.14 107.539 23.536C107.539 24.148 107.617 24.676 107.773 25.12C107.929 25.552 108.133 25.906 108.385 26.182C108.649 26.458 108.949 26.662 109.285 26.794C109.621 26.914 109.975 26.974 110.347 26.974C110.599 26.974 110.839 26.962 111.067 26.938C111.307 26.902 111.523 26.866 111.715 26.83C111.919 26.782 112.111 26.728 112.291 26.668L112.579 27.874C112.327 27.946 112.093 28.006 111.877 28.054C111.661 28.102 111.403 28.144 111.103 28.18C110.815 28.216 110.503 28.234 110.167 28.234C109.507 28.234 108.919 28.15 108.403 27.982C107.887 27.814 107.449 27.544 107.089 27.172C106.741 26.8 106.471 26.314 106.279 25.714C106.099 25.114 106.009 24.382 106.009 23.518C106.009 22.678 106.123 21.958 106.351 21.358C106.591 20.746 106.903 20.254 107.287 19.882C107.671 19.498 108.109 19.216 108.601 19.036C109.105 18.856 109.627 18.766 110.167 18.766C110.455 18.766 110.731 18.784 110.995 18.82C111.271 18.844 111.511 18.874 111.715 18.91C111.955 18.958 112.183 19.006 112.399 19.054L112.111 20.26Z" fill="white"/>
</svg>
