<svg width="20" height="20" viewBox="0 0 20 20" fill="none" xmlns="http://www.w3.org/2000/svg">
<g id="Star">
<path id="Vector" d="M10.3109 14.6676L13.9685 16.9848C14.436 17.281 15.0165 16.8405 14.8777 16.2948L13.821 12.1378C13.7912 12.022 13.7947 11.9001 13.8311 11.7863C13.8676 11.6724 13.9354 11.5711 14.0268 11.4941L17.3066 8.76419C17.7376 8.4055 17.5151 7.69027 16.9615 7.65433L12.6782 7.37635C12.5628 7.3681 12.4521 7.32726 12.3591 7.25856C12.266 7.18986 12.1944 7.09615 12.1525 6.98832L10.5551 2.96544C10.5116 2.85099 10.4344 2.75246 10.3337 2.68294C10.2329 2.61341 10.1134 2.57617 9.99102 2.57617C9.86861 2.57617 9.7491 2.61341 9.64835 2.68294C9.54761 2.75246 9.4704 2.85099 9.42697 2.96544L7.82949 6.98832C7.78763 7.09615 7.716 7.18986 7.62295 7.25856C7.52989 7.32726 7.41924 7.3681 7.30387 7.37635L3.02058 7.65433C2.46688 7.69027 2.24445 8.4055 2.67541 8.76419L5.95528 11.4941C6.04668 11.5711 6.11448 11.6724 6.15088 11.7863C6.18729 11.9001 6.19081 12.022 6.16105 12.1378L5.18104 15.9929C5.01456 16.6478 5.71112 17.1765 6.27216 16.821L9.67113 14.6676C9.76673 14.6067 9.8777 14.5744 9.99102 14.5744C10.1043 14.5744 10.2153 14.6067 10.3109 14.6676Z" fill="#FD8E1F"/>
</g>
</svg>
