<svg width="41" height="35" viewBox="0 0 41 35" fill="none" xmlns="http://www.w3.org/2000/svg">
<g id="Layer_1" clip-path="url(#clip0_221_13678)">
<g id="Vector">
<mask id="path-1-inside-1_221_13678" fill="white">
<path d="M31.0468 0.627441L27.6419 4.13752C27.4712 4.11288 27.3004 4.09528 27.1296 4.08471C25.9104 3.57422 23.7384 3.21511 21.1941 5.23596L21.1361 5.28877L20.2994 6.15485C17.154 3.95445 14.6541 5.3099 13.954 5.78871L10.819 2.55675L0.935547 12.742L4.68195 16.6041C4.71269 18.3328 5.30692 20.1072 6.46807 21.9027C6.94619 22.642 7.50285 23.3215 8.10733 23.9517C8.87915 24.7579 9.66122 25.5536 10.4399 26.3563C9.59633 27.6237 9.95834 28.6694 10.836 29.6129C11.7479 30.5916 12.588 30.7043 13.8243 30.3382C13.8345 30.3382 13.8482 30.3382 13.855 30.3487C14.7395 31.7182 15.5592 32.3801 16.4403 32.4541C16.8057 32.8202 17.1677 33.1899 17.5365 33.556C18.626 34.6404 20.2891 34.8833 21.604 34.1052C22.1709 33.7708 22.2699 33.4927 22.5602 33.0174C24.7834 34.9396 26.269 34.9748 28.0142 32.278C28.021 32.2675 28.0312 32.264 28.0449 32.2675C29.2812 32.6371 30.1213 32.521 31.0331 31.5422C31.9621 30.5459 32.3138 29.4334 31.2756 28.0673C31.2688 28.0568 30.999 27.6977 31.0127 27.6977C31.7537 27.7223 32.3377 27.2365 32.6622 26.8069C33.5228 25.6592 33.4681 24.4552 32.546 23.2722C32.949 22.8533 33.3589 22.4414 33.7584 22.0189C34.3629 21.3887 34.9196 20.7057 35.3977 19.9699C36.5588 18.1779 37.1531 16.4034 37.1838 14.6713L40.9268 10.8091L31.0468 0.627441ZM8.70498 22.473C7.56774 21.2373 6.71737 19.8678 6.34512 18.3187C6.26316 17.9737 6.20169 17.6181 6.17095 17.2554C6.14363 16.9597 6.13338 16.6534 6.14363 16.3436L2.346 12.4286L10.5082 4.01078L13.1242 6.71111L13.2949 6.89067L13.2847 6.91883L14.5483 7.02797L14.6302 6.81673C15.1289 6.46467 17.1984 5.28173 19.9647 7.45397L23.6223 11.2422C23.8067 11.4323 23.9058 11.6858 23.9058 11.9569C23.9058 12.228 23.8033 12.4814 23.6189 12.6716L23.3764 12.9215C22.9939 13.3158 22.3724 13.3123 21.9899 12.9215L18.2503 9.04882L17.3419 9.70366L18.3527 10.9253L18.7899 11.3795C18.3596 11.8231 17.9293 12.2667 17.499 12.7103C17.3931 12.8194 17.3316 12.9391 17.3009 13.0624C17.2804 13.0835 17.2599 13.1081 17.236 13.1292C14.7225 15.724 12.1987 18.3116 9.69196 20.9134C9.18993 21.4344 8.85866 21.959 8.69815 22.4836L8.70498 22.473ZM20.8287 32.9751C20.5384 33.2568 20.2413 33.4328 19.8076 33.3976C19.2099 33.3483 18.7967 32.8801 18.5064 32.5843C18.3288 32.4048 18.1547 32.2217 17.9771 32.0421C18.3903 31.8133 18.8274 31.4929 19.3021 31.0845C19.5924 31.5598 19.6881 31.8379 20.2584 32.1724C20.5145 32.3238 20.7809 32.4329 21.0575 32.5104C21.0097 32.7005 20.9346 32.8695 20.8287 32.9716V32.9751ZM26.2178 32.4541C25.6577 33.1335 25.0157 33.1934 24.196 32.4083C24.0697 32.2851 23.9433 32.1618 23.817 32.0386C23.998 31.9189 24.1687 31.7781 24.3258 31.6232C24.7971 31.1549 25.2581 30.6832 25.726 30.2149C25.7738 30.2677 25.8251 30.317 25.8763 30.3698C26.6481 31.1655 26.7506 31.8098 26.2178 32.4541ZM30.1247 30.3487C29.5578 31.1479 28.6904 31.1655 27.9151 30.3663C27.5292 29.972 27.1467 29.5707 26.7608 29.1763C27.396 28.5356 28.0347 27.8983 28.6665 27.2576C29.025 27.6273 29.3836 27.9934 29.7422 28.3666C30.4321 29.0813 30.5482 29.7537 30.1247 30.3522V30.3487ZM31.7059 25.6275C31.4191 26.3704 30.5619 26.7225 29.8822 26.3352C29.8139 26.2965 29.7525 26.2542 29.691 26.2084C30.3023 25.5818 30.9102 24.9516 31.5181 24.3249C31.7811 24.684 31.9177 25.0854 31.7059 25.6275ZM35.7153 14.4143C35.7255 14.7241 35.7153 15.0269 35.688 15.3261C35.6538 15.6888 35.5958 16.0443 35.5138 16.3894C35.1381 17.9455 34.2809 19.3185 33.1369 20.5613C31.5864 22.2442 29.9608 23.8531 28.3659 25.4937C26.6959 27.2153 25.0293 28.9475 23.3457 30.655C23.0554 30.9472 22.6422 31.419 22.0445 31.4683C21.6108 31.5035 21.3137 31.331 21.0268 31.0458C20.7672 30.7923 20.6819 30.1551 20.7843 29.7537C20.8936 29.3207 21.2659 28.9299 21.5903 28.5884C22.3519 27.7857 23.1271 26.9935 23.8989 26.1979C24.2746 25.8106 24.6468 25.4198 25.0157 25.029C25.4084 24.6101 26.5559 23.7264 25.9139 23.1068C25.323 22.5364 24.4761 23.6349 24.1209 24.0045C23.7452 24.3918 23.3696 24.7791 22.9905 25.1628C21.2215 26.9443 19.4763 28.7503 17.6663 30.4825C16.8467 31.2676 16.2046 31.2078 15.6445 30.5283C15.1118 29.884 15.2142 29.2397 15.9861 28.444C17.9907 26.3739 19.9954 24.3073 22.0001 22.2407C22.2801 21.952 22.526 21.7619 22.5773 21.3183C22.6148 20.9908 22.4987 20.7022 22.1709 20.6493C21.6176 20.5648 21.3786 20.7796 21.0234 21.1458C18.6635 23.5785 16.3071 26.0148 13.9438 28.4405C13.1686 29.2362 12.3011 29.2186 11.7342 28.4229C11.3107 27.8279 11.4268 27.152 12.1167 26.4373C14.5107 23.9587 16.9081 21.4873 19.3124 19.0193C19.7051 18.6179 20.0125 18.1673 19.531 17.7026C19.0733 17.259 18.6772 17.6533 18.3254 18.0124C16.4812 19.9206 14.6337 21.8288 12.7792 23.7264C12.5333 23.9799 12.2738 24.2369 11.9733 24.4094C11.2937 24.7967 10.4365 24.4446 10.1496 23.7017C9.85247 22.9413 10.235 22.459 10.7028 21.9766C13.7696 18.8256 16.8364 15.6747 19.8793 12.4955L21.1361 13.7982C21.563 14.2418 22.1265 14.4636 22.69 14.4636C23.25 14.4636 23.8101 14.2453 24.237 13.8052L24.4795 13.5588C24.8927 13.1328 25.1215 12.5659 25.125 11.9639C25.125 11.3971 24.9201 10.8655 24.5546 10.45L21.7679 7.54903L21.2215 6.9822L21.966 6.21118C23.1169 5.30638 24.1448 4.98952 24.9918 4.94727C26.5422 4.80293 27.9151 5.63732 27.9151 5.63732L28.7382 4.78884L31.3542 2.08851L39.5198 10.5064L35.7221 14.4213L35.7153 14.4143Z"/>
</mask>
<path d="M31.0468 0.627441L27.6419 4.13752C27.4712 4.11288 27.3004 4.09528 27.1296 4.08471C25.9104 3.57422 23.7384 3.21511 21.1941 5.23596L21.1361 5.28877L20.2994 6.15485C17.154 3.95445 14.6541 5.3099 13.954 5.78871L10.819 2.55675L0.935547 12.742L4.68195 16.6041C4.71269 18.3328 5.30692 20.1072 6.46807 21.9027C6.94619 22.642 7.50285 23.3215 8.10733 23.9517C8.87915 24.7579 9.66122 25.5536 10.4399 26.3563C9.59633 27.6237 9.95834 28.6694 10.836 29.6129C11.7479 30.5916 12.588 30.7043 13.8243 30.3382C13.8345 30.3382 13.8482 30.3382 13.855 30.3487C14.7395 31.7182 15.5592 32.3801 16.4403 32.4541C16.8057 32.8202 17.1677 33.1899 17.5365 33.556C18.626 34.6404 20.2891 34.8833 21.604 34.1052C22.1709 33.7708 22.2699 33.4927 22.5602 33.0174C24.7834 34.9396 26.269 34.9748 28.0142 32.278C28.021 32.2675 28.0312 32.264 28.0449 32.2675C29.2812 32.6371 30.1213 32.521 31.0331 31.5422C31.9621 30.5459 32.3138 29.4334 31.2756 28.0673C31.2688 28.0568 30.999 27.6977 31.0127 27.6977C31.7537 27.7223 32.3377 27.2365 32.6622 26.8069C33.5228 25.6592 33.4681 24.4552 32.546 23.2722C32.949 22.8533 33.3589 22.4414 33.7584 22.0189C34.3629 21.3887 34.9196 20.7057 35.3977 19.9699C36.5588 18.1779 37.1531 16.4034 37.1838 14.6713L40.9268 10.8091L31.0468 0.627441ZM8.70498 22.473C7.56774 21.2373 6.71737 19.8678 6.34512 18.3187C6.26316 17.9737 6.20169 17.6181 6.17095 17.2554C6.14363 16.9597 6.13338 16.6534 6.14363 16.3436L2.346 12.4286L10.5082 4.01078L13.1242 6.71111L13.2949 6.89067L13.2847 6.91883L14.5483 7.02797L14.6302 6.81673C15.1289 6.46467 17.1984 5.28173 19.9647 7.45397L23.6223 11.2422C23.8067 11.4323 23.9058 11.6858 23.9058 11.9569C23.9058 12.228 23.8033 12.4814 23.6189 12.6716L23.3764 12.9215C22.9939 13.3158 22.3724 13.3123 21.9899 12.9215L18.2503 9.04882L17.3419 9.70366L18.3527 10.9253L18.7899 11.3795C18.3596 11.8231 17.9293 12.2667 17.499 12.7103C17.3931 12.8194 17.3316 12.9391 17.3009 13.0624C17.2804 13.0835 17.2599 13.1081 17.236 13.1292C14.7225 15.724 12.1987 18.3116 9.69196 20.9134C9.18993 21.4344 8.85866 21.959 8.69815 22.4836L8.70498 22.473ZM20.8287 32.9751C20.5384 33.2568 20.2413 33.4328 19.8076 33.3976C19.2099 33.3483 18.7967 32.8801 18.5064 32.5843C18.3288 32.4048 18.1547 32.2217 17.9771 32.0421C18.3903 31.8133 18.8274 31.4929 19.3021 31.0845C19.5924 31.5598 19.6881 31.8379 20.2584 32.1724C20.5145 32.3238 20.7809 32.4329 21.0575 32.5104C21.0097 32.7005 20.9346 32.8695 20.8287 32.9716V32.9751ZM26.2178 32.4541C25.6577 33.1335 25.0157 33.1934 24.196 32.4083C24.0697 32.2851 23.9433 32.1618 23.817 32.0386C23.998 31.9189 24.1687 31.7781 24.3258 31.6232C24.7971 31.1549 25.2581 30.6832 25.726 30.2149C25.7738 30.2677 25.8251 30.317 25.8763 30.3698C26.6481 31.1655 26.7506 31.8098 26.2178 32.4541ZM30.1247 30.3487C29.5578 31.1479 28.6904 31.1655 27.9151 30.3663C27.5292 29.972 27.1467 29.5707 26.7608 29.1763C27.396 28.5356 28.0347 27.8983 28.6665 27.2576C29.025 27.6273 29.3836 27.9934 29.7422 28.3666C30.4321 29.0813 30.5482 29.7537 30.1247 30.3522V30.3487ZM31.7059 25.6275C31.4191 26.3704 30.5619 26.7225 29.8822 26.3352C29.8139 26.2965 29.7525 26.2542 29.691 26.2084C30.3023 25.5818 30.9102 24.9516 31.5181 24.3249C31.7811 24.684 31.9177 25.0854 31.7059 25.6275ZM35.7153 14.4143C35.7255 14.7241 35.7153 15.0269 35.688 15.3261C35.6538 15.6888 35.5958 16.0443 35.5138 16.3894C35.1381 17.9455 34.2809 19.3185 33.1369 20.5613C31.5864 22.2442 29.9608 23.8531 28.3659 25.4937C26.6959 27.2153 25.0293 28.9475 23.3457 30.655C23.0554 30.9472 22.6422 31.419 22.0445 31.4683C21.6108 31.5035 21.3137 31.331 21.0268 31.0458C20.7672 30.7923 20.6819 30.1551 20.7843 29.7537C20.8936 29.3207 21.2659 28.9299 21.5903 28.5884C22.3519 27.7857 23.1271 26.9935 23.8989 26.1979C24.2746 25.8106 24.6468 25.4198 25.0157 25.029C25.4084 24.6101 26.5559 23.7264 25.9139 23.1068C25.323 22.5364 24.4761 23.6349 24.1209 24.0045C23.7452 24.3918 23.3696 24.7791 22.9905 25.1628C21.2215 26.9443 19.4763 28.7503 17.6663 30.4825C16.8467 31.2676 16.2046 31.2078 15.6445 30.5283C15.1118 29.884 15.2142 29.2397 15.9861 28.444C17.9907 26.3739 19.9954 24.3073 22.0001 22.2407C22.2801 21.952 22.526 21.7619 22.5773 21.3183C22.6148 20.9908 22.4987 20.7022 22.1709 20.6493C21.6176 20.5648 21.3786 20.7796 21.0234 21.1458C18.6635 23.5785 16.3071 26.0148 13.9438 28.4405C13.1686 29.2362 12.3011 29.2186 11.7342 28.4229C11.3107 27.8279 11.4268 27.152 12.1167 26.4373C14.5107 23.9587 16.9081 21.4873 19.3124 19.0193C19.7051 18.6179 20.0125 18.1673 19.531 17.7026C19.0733 17.259 18.6772 17.6533 18.3254 18.0124C16.4812 19.9206 14.6337 21.8288 12.7792 23.7264C12.5333 23.9799 12.2738 24.2369 11.9733 24.4094C11.2937 24.7967 10.4365 24.4446 10.1496 23.7017C9.85247 22.9413 10.235 22.459 10.7028 21.9766C13.7696 18.8256 16.8364 15.6747 19.8793 12.4955L21.1361 13.7982C21.563 14.2418 22.1265 14.4636 22.69 14.4636C23.25 14.4636 23.8101 14.2453 24.237 13.8052L24.4795 13.5588C24.8927 13.1328 25.1215 12.5659 25.125 11.9639C25.125 11.3971 24.9201 10.8655 24.5546 10.45L21.7679 7.54903L21.2215 6.9822L21.966 6.21118C23.1169 5.30638 24.1448 4.98952 24.9918 4.94727C26.5422 4.80293 27.9151 5.63732 27.9151 5.63732L28.7382 4.78884L31.3542 2.08851L39.5198 10.5064L35.7221 14.4213L35.7153 14.4143Z" fill="#8828FF" stroke="#8828FF" stroke-width="4.84742" mask="url(#path-1-inside-1_221_13678)"/>
</g>
</g>
<defs>
<clipPath id="clip0_221_13678">
<rect width="39.9912" height="33.932" fill="white" transform="translate(0.935547 0.627441)"/>
</clipPath>
</defs>
</svg>
