<svg width="40" height="40" viewBox="0 0 40 40" fill="none" xmlns="http://www.w3.org/2000/svg">
<path fill-rule="evenodd" clip-rule="evenodd" d="M16.3874 18.8055C14.3795 18.8055 12.7518 20.4332 12.7518 22.4411C12.7518 24.449 14.3795 26.0767 16.3874 26.0767C18.3953 26.0767 20.023 24.449 20.023 22.4411C20.023 20.4332 18.3953 18.8055 16.3874 18.8055ZM10.3281 22.4411C10.3281 19.0947 13.041 16.3818 16.3874 16.3818C19.7339 16.3818 22.4467 19.0947 22.4467 22.4411C22.4467 25.7876 19.7339 28.5004 16.3874 28.5004C13.041 28.5004 10.3281 25.7876 10.3281 22.4411Z" fill="#8828FF"/>
<path fill-rule="evenodd" clip-rule="evenodd" d="M4.97893 7.39641C5.43347 6.94188 6.04995 6.68652 6.69275 6.68652H33.3536C33.9964 6.68652 34.6129 6.94188 35.0674 7.39641C35.5219 7.85095 35.7773 8.46743 35.7773 9.11024V30.9236C35.7773 31.5664 35.5219 32.1829 35.0674 32.6375C34.6129 33.092 33.9964 33.3474 33.3536 33.3474H24.0526C23.5844 33.3474 23.1582 33.0777 22.9576 32.6547C22.368 31.4113 21.4376 30.3607 20.2746 29.625C19.1116 28.8893 17.7637 28.4988 16.3876 28.4988C15.0115 28.4988 13.6636 28.8893 12.5006 29.625C11.3376 30.3607 10.4072 31.4113 9.81761 32.6547C9.61704 33.0777 9.19076 33.3474 8.72261 33.3474H6.69275C6.04995 33.3474 5.43347 33.092 4.97893 32.6375C4.5244 32.1829 4.26904 31.5664 4.26904 30.9236V9.11024C4.26904 8.46743 4.5244 7.85095 4.97893 7.39641ZM33.3536 9.11024L6.69275 9.11024L6.69275 30.9236H7.99096C8.77358 29.5676 9.87519 28.4178 11.2049 27.5767C12.7555 26.5958 14.5527 26.0751 16.3876 26.0751C18.2225 26.0751 20.0197 26.5958 21.5703 27.5767C22.9 28.4178 24.0016 29.5676 24.7842 30.9236H33.3536V9.11024Z" fill="#8828FF"/>
<path fill-rule="evenodd" clip-rule="evenodd" d="M9.11621 12.746C9.11621 12.0767 9.65878 11.5342 10.3281 11.5342H29.7178C30.3871 11.5342 30.9296 12.0767 30.9296 12.746V27.2883C30.9296 27.9576 30.3871 28.5002 29.7178 28.5002H27.294C26.6248 28.5002 26.0822 27.9576 26.0822 27.2883C26.0822 26.619 26.6248 26.0765 27.294 26.0765H28.5059V13.9579H11.5399V15.1697C11.5399 15.839 10.9974 16.3816 10.3281 16.3816C9.65878 16.3816 9.11621 15.839 9.11621 15.1697V12.746Z" fill="#8828FF"/>
</svg>
