<svg width="45" height="45" viewBox="0 0 45 45" fill="none" xmlns="http://www.w3.org/2000/svg">
<path opacity="0.2" d="M10.1262 35.0266C8.56225 33.4626 9.59958 30.1791 8.80353 28.2551C7.97831 26.2606 4.9502 24.6554 4.9502 22.5304C4.9502 20.4055 7.97832 18.8003 8.80354 16.8059C9.59959 14.8819 8.56226 11.5984 10.1262 10.0344C11.6902 8.47046 14.9737 9.50778 16.8977 8.71173C18.8922 7.88651 20.4974 4.8584 22.6224 4.8584C24.7473 4.8584 26.3525 7.88653 28.3469 8.71174C30.2709 9.5078 33.5544 8.47046 35.1184 10.0344C36.6824 11.5984 35.645 14.8819 36.4411 16.8059C37.2663 18.8004 40.2944 20.4056 40.2944 22.5306C40.2944 24.6555 37.2663 26.2607 36.4411 28.2551C35.645 30.1791 36.6824 33.4626 35.1184 35.0266C33.5544 36.5906 30.2709 35.5532 28.3469 36.3493C26.3524 37.1745 24.7472 40.2026 22.6222 40.2026C20.4973 40.2026 18.8921 37.1745 16.8977 36.3493C14.9737 35.5532 11.6902 36.5906 10.1262 35.0266Z" fill="#8828FF"/>
<path d="M10.1262 35.0266C8.56225 33.4626 9.59958 30.1791 8.80353 28.2551C7.97831 26.2606 4.9502 24.6554 4.9502 22.5304C4.9502 20.4055 7.97832 18.8003 8.80354 16.8059C9.59959 14.8819 8.56226 11.5984 10.1262 10.0344C11.6902 8.47046 14.9737 9.50778 16.8977 8.71173C18.8922 7.88651 20.4974 4.8584 22.6224 4.8584C24.7473 4.8584 26.3525 7.88653 28.3469 8.71174C30.2709 9.5078 33.5544 8.47046 35.1184 10.0344C36.6824 11.5984 35.645 14.8819 36.4411 16.8059C37.2663 18.8004 40.2944 20.4056 40.2944 22.5306C40.2944 24.6555 37.2663 26.2607 36.4411 28.2551C35.645 30.1791 36.6824 33.4626 35.1184 35.0266C33.5544 36.5906 30.2709 35.5532 28.3469 36.3493C26.3524 37.1745 24.7472 40.2026 22.6222 40.2026C20.4973 40.2026 18.8921 37.1745 16.8977 36.3493C14.9737 35.5532 11.6902 36.5906 10.1262 35.0266Z" stroke="#8828FF" stroke-width="2.17503" stroke-linecap="round" stroke-linejoin="round"/>
<path d="M30.0988 18.4521L20.1299 27.9679L15.1455 23.21" stroke="#8828FF" stroke-width="2.17503" stroke-linecap="round" stroke-linejoin="round"/>
</svg>
