<svg width="40" height="39" viewBox="0 0 40 39" fill="none" xmlns="http://www.w3.org/2000/svg">
<path fill-rule="evenodd" clip-rule="evenodd" d="M5.16596 8.68652C5.83525 8.68652 6.37781 9.22909 6.37781 9.89838V22.0169C6.37781 22.6862 5.83525 23.2288 5.16596 23.2288C4.49667 23.2288 3.9541 22.6862 3.9541 22.0169V9.89838C3.9541 9.22909 4.49667 8.68652 5.16596 8.68652Z" fill="#8828FF"/>
<path fill-rule="evenodd" clip-rule="evenodd" d="M19.7083 28.079C17.6897 28.079 15.703 28.5826 13.9282 29.5442C12.1534 30.5057 10.6465 31.8949 9.54404 33.5858C9.17851 34.1465 8.42768 34.3046 7.86703 33.9391C7.30638 33.5736 7.1482 32.8227 7.51374 32.2621C8.8364 30.2334 10.6443 28.5668 12.7736 27.4131C14.903 26.2595 17.2865 25.6553 19.7083 25.6553C22.13 25.6553 24.5136 26.2595 26.6429 27.4131C28.7722 28.5668 30.5801 30.2334 31.9028 32.2621C32.2683 32.8227 32.1101 33.5736 31.5495 33.9391C30.9888 34.3046 30.238 34.1465 29.8725 33.5858C28.77 31.8949 27.2631 30.5057 25.4883 29.5442C23.7135 28.5826 21.7268 28.079 19.7083 28.079Z" fill="#8828FF"/>
<path fill-rule="evenodd" clip-rule="evenodd" d="M19.325 3.90154C19.5738 3.81863 19.8427 3.81863 20.0915 3.90154L34.6337 8.74897C35.1286 8.91392 35.4624 9.37702 35.4624 9.89863C35.4624 10.4203 35.1286 10.8834 34.6337 11.0483L20.0915 15.8957C19.8427 15.9786 19.5738 15.9786 19.325 15.8957L4.78273 11.0483C4.28788 10.8834 3.9541 10.4203 3.9541 9.89863C3.9541 9.37702 4.28788 8.91392 4.78273 8.74897L19.325 3.90154ZM8.99818 9.89863L19.7082 13.4687L30.4183 9.89863L19.7082 6.32862L8.99818 9.89863Z" fill="#8828FF"/>
<path fill-rule="evenodd" clip-rule="evenodd" d="M14.2703 11.7615C14.7639 12.2135 14.7976 12.98 14.3456 13.4736C13.3927 14.5142 12.7632 15.8094 12.5337 17.2015C12.3042 18.5936 12.4847 20.0224 13.0532 21.3137C13.6216 22.605 14.5535 23.703 15.7351 24.4739C16.9167 25.2449 18.2972 25.6553 19.708 25.6553C21.1189 25.6553 22.4993 25.2449 23.681 24.4739C24.8626 23.703 25.7945 22.605 26.3629 21.3137C26.9313 20.0224 27.1118 18.5936 26.8823 17.2015C26.6529 15.8094 26.0233 14.5142 25.0705 13.4736C24.6185 12.98 24.6522 12.2135 25.1458 11.7615C25.6394 11.3095 26.406 11.3432 26.858 11.8368C28.1284 13.2242 28.9678 14.9512 29.2738 16.8073C29.5798 18.6634 29.3391 20.5685 28.5812 22.2902C27.8233 24.012 26.5808 25.476 25.0053 26.5039C23.4298 27.5317 21.5892 28.079 19.708 28.079C17.8269 28.079 15.9863 27.5317 14.4108 26.5039C12.8353 25.476 11.5928 24.012 10.8349 22.2902C10.077 20.5685 9.83631 18.6634 10.1423 16.8073C10.4483 14.9512 11.2876 13.2242 12.5581 11.8368C13.0101 11.3432 13.7767 11.3095 14.2703 11.7615Z" fill="#8828FF"/>
</svg>
