<svg width="7" height="7" viewBox="0 0 7 7" fill="none" xmlns="http://www.w3.org/2000/svg">
<path d="M2.88996 2.80946V2.55642C2.80327 2.54484 2.71514 2.5376 2.62411 2.5376C1.53904 2.53617 0.65625 3.4197 0.65625 4.50713C0.65625 5.17376 0.988562 5.76375 1.49714 6.12093C1.16917 5.76954 0.968334 5.29667 0.968334 4.77899C0.968334 3.70746 1.82656 2.83404 2.88996 2.80946Z" fill="#25F4EE"/>
<path d="M6.08298 1.97803V2.8095C5.52816 2.8095 5.0138 2.63165 4.59478 2.33086V4.50717C4.59478 5.59316 3.71201 6.47815 2.62548 6.47815C2.20648 6.47815 1.81638 6.3451 1.49707 6.12097C1.85683 6.50706 2.36975 6.75001 2.93758 6.75001C4.02264 6.75001 4.90688 5.86646 4.90688 4.77903V2.60272C5.32588 2.90351 5.84023 3.08136 6.39505 3.08136V2.0113C6.28669 2.0113 6.18266 1.99972 6.08298 1.97803Z" fill="#FE2C55"/>
<path d="M4.59478 4.50728V2.33097C5.0138 2.63176 5.52816 2.80961 6.08298 2.80961V1.97814C5.76222 1.91019 5.48048 1.73666 5.27243 1.49805C4.93721 1.27971 4.69593 0.92976 4.61935 0.521973H3.83625L3.83481 4.81239C3.81748 5.29248 3.42158 5.67859 2.93758 5.67859C2.63704 5.67859 2.37264 5.52964 2.20793 5.30406C1.92185 5.15222 1.72535 4.8529 1.72535 4.50728C1.72535 4.01129 2.12846 3.60784 2.62404 3.60784C2.71651 3.60784 2.80609 3.62374 2.88989 3.64977V2.81106C1.82649 2.8342 0.968262 3.70761 0.968262 4.77914C0.968262 5.29682 1.16909 5.76825 1.49707 6.12108C1.81638 6.34521 2.20648 6.47826 2.62548 6.47826C3.71056 6.47826 4.59478 5.59327 4.59478 4.50728Z" fill="white"/>
<path d="M2.93766 5.67847C3.42169 5.67847 3.81757 5.29239 3.83492 4.8123L3.83636 0.521858H4.61946C4.60356 0.433648 4.59489 0.342548 4.59489 0.25H3.52571L3.52427 4.54044C3.50694 5.02053 3.11104 5.40661 2.62703 5.40661C2.47677 5.40661 2.33517 5.36902 2.20947 5.3025C2.37129 5.52952 2.63714 5.67847 2.93766 5.67847Z" fill="#25F4EE"/>
<path d="M6.08301 1.97814V1.73955C5.78394 1.73955 5.50652 1.65134 5.27246 1.49805C5.48051 1.73665 5.76225 1.91019 6.08301 1.97814Z" fill="#25F4EE"/>
<path d="M5.27246 1.49805C5.04416 1.23632 4.90691 0.895053 4.90691 0.521973H4.62085C4.69452 0.92976 4.93727 1.27971 5.27246 1.49805Z" fill="#FE2C55"/>
<path d="M2.62549 3.60633C2.12991 3.60633 1.72681 4.00979 1.72681 4.50578C1.72681 4.85139 1.9233 5.15216 2.20938 5.30255C2.10246 5.15506 2.03889 4.97431 2.03889 4.77763C2.03889 4.28164 2.442 3.87819 2.93758 3.87819C3.03005 3.87819 3.11962 3.89409 3.20343 3.92012V2.82692C3.11673 2.81534 3.0286 2.80811 2.93758 2.80811C2.92168 2.80811 2.90723 2.80955 2.89134 2.80955V3.64827C2.8061 3.62223 2.71796 3.60633 2.62549 3.60633Z" fill="#FE2C55"/>
</svg>
