<svg width="8" height="6" viewBox="0 0 8 6" fill="none" xmlns="http://www.w3.org/2000/svg">
<path d="M7.325 1.29356C7.2375 0.987305 7.01876 0.768555 6.71251 0.681055C6.18751 0.549805 3.95625 0.549805 3.95625 0.549805C3.95625 0.549805 1.76875 0.549805 1.2 0.681055C0.893753 0.768555 0.674999 0.987305 0.587499 1.29356C0.499999 1.86231 0.5 2.99981 0.5 2.99981C0.5 2.99981 0.500001 4.1373 0.631251 4.70605C0.718751 5.0123 0.937499 5.23105 1.24375 5.31855C1.76875 5.4498 4 5.44981 4 5.44981C4 5.44981 6.18749 5.4498 6.75624 5.31855C7.06249 5.23105 7.28126 5.0123 7.36876 4.70605C7.50001 4.1373 7.5 2.99981 7.5 2.99981C7.5 2.99981 7.5 1.86231 7.325 1.29356ZM3.3 4.0498V1.94981L5.1375 2.99981L3.3 4.0498Z" fill="white"/>
</svg>
