<svg width="46" height="46" viewBox="0 0 46 46" fill="none" xmlns="http://www.w3.org/2000/svg">
<g id="&#240;&#159;&#166;&#134; icon &#34;instagram&#34;">
<path id="Vector" d="M23 0C16.7517 0 15.9716 0.02875 13.5182 0.138C11.0687 0.253 9.40125 0.63825 7.935 1.2075C6.42275 1.794 5.13858 2.58175 3.86017 3.86017C2.58175 5.13858 1.79208 6.42083 1.2075 7.935C0.63825 9.40125 0.251083 11.0687 0.138 13.5182C0.023 15.9716 0 16.7517 0 23C0 29.2483 0.02875 30.0284 0.138 32.4818C0.253 34.9293 0.63825 36.5988 1.2075 38.065C1.78498 39.6 2.69023 40.9906 3.86017 42.1398C5.00878 43.3106 6.39955 44.216 7.935 44.7925C9.40317 45.3598 11.0707 45.7489 13.5182 45.862C15.9716 45.977 16.7517 46 23 46C29.2483 46 30.0284 45.9712 32.4818 45.862C34.9293 45.747 36.5988 45.3598 38.065 44.7925C39.5996 44.2143 40.99 43.3092 42.1398 42.1398C43.311 40.9915 44.2164 39.6007 44.7925 38.065C45.3598 36.5988 45.7489 34.9293 45.862 32.4818C45.977 30.0284 46 29.2483 46 23C46 16.7517 45.9712 15.9716 45.862 13.5182C45.747 11.0707 45.3598 9.39933 44.7925 7.935C44.2147 6.40017 43.3095 5.00964 42.1398 3.86017C40.9921 2.6884 39.601 1.78286 38.065 1.2075C36.5988 0.63825 34.9293 0.251083 32.4818 0.138C30.0284 0.023 29.2483 0 23 0ZM23 4.14C29.1391 4.14 29.8713 4.17067 32.2958 4.27608C34.5383 4.3815 35.7554 4.75333 36.5642 5.0715C37.6414 5.48742 38.4042 5.98575 39.2131 6.78883C40.0162 7.59383 40.5145 8.35858 40.9304 9.43575C41.2447 10.2446 41.6204 11.4617 41.722 13.7042C41.8312 16.1307 41.8562 16.859 41.8562 23C41.8562 29.141 41.8274 29.8713 41.7143 32.2958C41.5974 34.5383 41.2237 35.7554 40.9074 36.5642C40.5333 37.5624 39.9451 38.4665 39.1843 39.2131C38.4409 39.9746 37.5374 40.5612 36.5393 40.9304C35.7343 41.2447 34.4981 41.6204 32.2556 41.722C29.8137 41.8312 29.095 41.8562 22.9425 41.8562C16.7881 41.8562 16.0693 41.8274 13.6294 41.7143C11.385 41.5974 10.1487 41.2237 9.34375 40.9074C8.34498 40.5379 7.4418 39.9491 6.70067 39.1843C5.93128 38.4459 5.3412 37.5411 4.97567 36.5393C4.65942 35.7343 4.28758 34.4981 4.17067 32.2556C4.08442 29.8406 4.05375 29.095 4.05375 22.9712C4.05375 16.8456 4.08442 16.0981 4.17067 13.6543C4.28758 11.4118 4.65942 10.1775 4.97567 9.3725C5.37817 8.28 5.89375 7.5325 6.70067 6.72558C7.50375 5.9225 8.25317 5.405 9.34375 5.00442C10.1487 4.68625 11.3582 4.3125 13.6007 4.1975C16.0444 4.11125 16.7632 4.0825 22.9137 4.0825L23 4.14ZM23 11.1895C21.449 11.1895 19.9132 11.495 18.4803 12.0885C17.0474 12.6821 15.7454 13.552 14.6487 14.6487C13.552 15.7454 12.6821 17.0474 12.0885 18.4803C11.495 19.9132 11.1895 21.449 11.1895 23C11.1895 24.551 11.495 26.0868 12.0885 27.5197C12.6821 28.9526 13.552 30.2546 14.6487 31.3513C15.7454 32.448 17.0474 33.3179 18.4803 33.9115C19.9132 34.505 21.449 34.8105 23 34.8105C26.1323 34.8105 29.1364 33.5662 31.3513 31.3513C33.5662 29.1364 34.8105 26.1323 34.8105 23C34.8105 19.8677 33.5662 16.8636 31.3513 14.6487C29.1364 12.4338 26.1323 11.1895 23 11.1895ZM23 30.6667C18.7642 30.6667 15.3333 27.2358 15.3333 23C15.3333 18.7642 18.7642 15.3333 23 15.3333C27.2358 15.3333 30.6667 18.7642 30.6667 23C30.6667 27.2358 27.2358 30.6667 23 30.6667ZM38.0382 10.7237C38.0115 11.4379 37.7091 12.114 37.1944 12.6099C36.6797 13.1057 35.9929 13.3828 35.2782 13.3828C34.5635 13.3828 33.8766 13.1057 33.3619 12.6099C32.8472 12.114 32.5448 11.4379 32.5182 10.7237C32.5182 9.99175 32.8089 9.28974 33.3265 8.77214C33.8442 8.25454 34.5462 7.96375 35.2782 7.96375C36.0102 7.96375 36.7122 8.25454 37.2298 8.77214C37.7474 9.28974 38.0382 9.99175 38.0382 10.7237Z" fill="white"/>
</g>
</svg>
