<svg width="40" height="46" viewBox="0 0 40 46" fill="none" xmlns="http://www.w3.org/2000/svg">
<g id="&#240;&#159;&#166;&#134; icon &#34;tiktok&#34;">
<path id="Vector" d="M20.5622 0.0375535C23.022 0 25.4629 0.0187767 27.9039 0C28.0541 2.87284 29.0869 5.80201 31.1898 7.8299C33.2928 9.91411 36.2596 10.8717 39.1512 11.1909V18.758C36.4473 18.6641 33.7247 18.1008 31.265 16.9366C30.1947 16.4484 29.1995 15.8288 28.2231 15.1904C28.2043 20.6732 28.2419 26.156 28.1856 31.62C28.0354 34.2488 27.1716 36.8587 25.6507 39.0181C23.191 42.6232 18.9286 44.9703 14.5537 45.0454C11.8686 45.1956 9.18352 44.4633 6.89275 43.1114C3.09985 40.8769 0.433558 36.7836 0.0392466 32.3899C0.00169309 31.451 -0.0170836 30.5122 0.0204698 29.5921C0.358451 26.0246 2.12346 22.6072 4.86487 20.2789C7.98181 17.575 12.338 16.2794 16.4126 17.0493C16.4501 19.8282 16.3375 22.6072 16.3375 25.3861C14.4786 24.7853 12.3005 24.9543 10.6669 26.0809C9.48394 26.8507 8.58266 28.0337 8.11324 29.3668C7.71893 30.3244 7.83159 31.3759 7.85037 32.3899C8.30101 35.4692 11.2677 38.0604 14.4222 37.7788C16.5252 37.76 18.5343 36.5395 19.6234 34.7557C19.9801 34.1361 20.3744 33.4977 20.3932 32.7654C20.581 29.4044 20.5059 26.0621 20.5247 22.7011C20.5434 15.134 20.5059 7.5858 20.5622 0.0375535Z" fill="white"/>
</g>
</svg>
